<?xml version="1.0" encoding="utf-8" standalone="no"?>
<!DOCTYPE svg PUBLIC "-//W3C//DTD SVG 1.1//EN"
  "http://www.w3.org/Graphics/SVG/1.1/DTD/svg11.dtd">
<svg xmlns:xlink="http://www.w3.org/1999/xlink" width="315.72pt" height="181.5408pt" viewBox="0 0 315.72 181.5408" xmlns="http://www.w3.org/2000/svg" version="1.1">
 <metadata>
  <rdf:RDF xmlns:dc="http://purl.org/dc/elements/1.1/" xmlns:cc="http://creativecommons.org/ns#" xmlns:rdf="http://www.w3.org/1999/02/22-rdf-syntax-ns#">
   <cc:Work>
    <dc:type rdf:resource="http://purl.org/dc/dcmitype/StillImage"/>
    <dc:date>2026-07-24T22:48:04.658204</dc:date>
    <dc:format>image/svg+xml</dc:format>
    <dc:creator>
     <cc:Agent>
      <dc:title>Matplotlib v3.11.0, https://matplotlib.org/</dc:title>
     </cc:Agent>
    </dc:creator>
   </cc:Work>
  </rdf:RDF>
 </metadata>
 <defs>
  <style type="text/css">*{stroke-linejoin: round; stroke-linecap: butt}</style>
 </defs>
 <g id="figure_1">
  <g id="patch_1">
   <path d="M 0 181.5408 
L 315.72 181.5408 
L 315.72 0 
L 0 0 
z
" style="fill: #ffffff"/>
  </g>
  <g id="axes_1">
   <g id="patch_2">
    <path d="M 61.4376 87.8544 
L 103.6224 87.8544 
L 103.6224 74.5488 
L 61.4376 74.5488 
z
" clip-path="url(#pa662772e4c)" style="fill: #e8f0fe; stroke: #1565c0; stroke-width: 1.5; stroke-linejoin: miter"/>
   </g>
   <g id="patch_3">
    <path d="M 61.4376 102.8232 
L 103.6224 102.8232 
L 103.6224 89.5176 
L 61.4376 89.5176 
z
" clip-path="url(#pa662772e4c)" style="fill: #e8f0fe; stroke: #1565c0; stroke-width: 1.5; stroke-linejoin: miter"/>
   </g>
   <g id="patch_4">
    <path d="M 61.4376 117.792 
L 103.6224 117.792 
L 103.6224 104.4864 
L 61.4376 104.4864 
z
" clip-path="url(#pa662772e4c)" style="fill: #e8f0fe; stroke: #1565c0; stroke-width: 1.5; stroke-linejoin: miter"/>
   </g>
   <g id="patch_5">
    <path d="M 203.058 87.8544 
L 245.2428 87.8544 
L 245.2428 74.5488 
L 203.058 74.5488 
z
" clip-path="url(#pa662772e4c)" style="fill: #e6f4ea; stroke: #188038; stroke-width: 1.5; stroke-linejoin: miter"/>
   </g>
   <g id="patch_6">
    <path d="M 203.058 102.8232 
L 245.2428 102.8232 
L 245.2428 89.5176 
L 203.058 89.5176 
z
" clip-path="url(#pa662772e4c)" style="fill: #e6f4ea; stroke: #188038; stroke-width: 1.5; stroke-linejoin: miter"/>
   </g>
   <g id="patch_7">
    <path d="M 203.058 117.792 
L 245.2428 117.792 
L 245.2428 104.4864 
L 203.058 104.4864 
z
" clip-path="url(#pa662772e4c)" style="fill: #e6f4ea; stroke: #188038; stroke-width: 1.5; stroke-linejoin: miter"/>
   </g>
   <g id="text_1">
    <!-- shape 안 숫자 개수 = 차원 -->
    <g transform="translate(94.680938 18) scale(0.12 -0.12)">
     <defs>
      <path id="AppleSDGothicNeo-Bold-54" d="M 1338 211 
C 2144 211 2598 550 2598 1235 
C 2598 1805 2349 2061 1702 2208 
L 1389 2278 
C 1075 2355 947 2438 947 2669 
C 947 2925 1152 3053 1536 3053 
C 1907 3053 2227 2957 2419 2874 
L 2419 3430 
C 2202 3526 1920 3610 1472 3610 
C 640 3610 250 3219 250 2611 
C 250 2022 582 1766 1088 1664 
L 1395 1594 
C 1754 1517 1882 1402 1882 1165 
C 1882 922 1690 768 1229 768 
C 768 768 525 864 250 973 
L 250 435 
C 525 288 909 211 1338 211 
z
" transform="scale(0.015625)"/>
      <path id="AppleSDGothicNeo-Bold-49" d="M 435 262 
L 1171 262 
L 1171 2822 
C 1370 2918 1658 3002 1914 3002 
C 2362 3002 2470 2867 2470 2534 
L 2470 262 
L 3213 262 
L 3213 2707 
C 3213 3360 2886 3616 2253 3616 
C 1856 3616 1472 3475 1203 3277 
L 1171 3277 
L 1171 4941 
L 435 4941 
L 435 262 
z
" transform="scale(0.015625)"/>
      <path id="AppleSDGothicNeo-Bold-42" d="M 1261 205 
C 1690 205 1952 346 2112 531 
L 2150 531 
L 2208 262 
L 2816 262 
L 2816 2630 
C 2816 3315 2374 3610 1613 3610 
C 1184 3610 832 3552 525 3430 
L 525 2925 
C 723 2970 1005 3014 1325 3014 
C 1882 3014 2080 2912 2080 2464 
L 2080 2214 
L 1306 2125 
C 653 2029 250 1747 250 1139 
C 250 506 666 205 1261 205 
z
M 1485 723 
C 1184 723 973 864 973 1178 
C 973 1510 1146 1645 1472 1670 
L 2080 1734 
L 2080 922 
C 1958 806 1722 723 1485 723 
z
" transform="scale(0.015625)"/>
      <path id="AppleSDGothicNeo-Bold-51" d="M 435 -691 
L 1171 -691 
L 1171 390 
C 1331 301 1574 205 1939 205 
C 2835 205 3430 691 3430 1926 
L 3430 2010 
C 3430 3219 2810 3616 2125 3616 
C 1709 3616 1370 3475 1171 3277 
L 1146 3277 
L 1146 3558 
L 435 3558 
L 435 -691 
z
M 1837 762 
C 1549 762 1299 851 1171 954 
L 1171 2822 
C 1299 2912 1549 3014 1862 3014 
C 2381 3014 2662 2778 2662 1965 
L 2662 1830 
C 2662 1030 2362 762 1837 762 
z
" transform="scale(0.015625)"/>
      <path id="AppleSDGothicNeo-Bold-46" d="M 1882 205 
C 2438 205 2822 365 3046 512 
L 3046 1024 
C 2758 877 2451 781 2029 781 
C 1402 781 1050 1024 1005 1709 
L 3155 1709 
L 3155 2016 
C 3155 3066 2733 3610 1760 3610 
C 922 3610 250 3066 250 1958 
L 250 1869 
C 250 826 787 205 1882 205 
z
M 1747 3066 
C 2176 3066 2406 2835 2406 2214 
L 1005 2214 
C 1056 2886 1408 3066 1747 3066 
z
" transform="scale(0.015625)"/>
      <path id="AppleSDGothicNeo-Bold-1" transform="scale(0.015625)"/>
      <path id="AppleSDGothicNeo-Bold-989" d="M 4653 5197 
L 3898 5197 
L 3898 1062 
L 4653 1062 
L 4653 2976 
L 5459 2976 
L 5459 3597 
L 4653 3597 
L 4653 5197 
z
M 4787 -339 
L 4787 256 
L 1702 256 
L 1702 1485 
L 954 1485 
L 954 -339 
L 4787 -339 
z
M 288 3341 
C 288 2528 883 1946 1792 1946 
C 2707 1946 3296 2528 3296 3341 
C 3296 4147 2707 4736 1792 4736 
C 883 4736 288 4147 288 3341 
z
M 1050 3341 
C 1050 3776 1338 4102 1792 4102 
C 2253 4102 2541 3776 2541 3341 
C 2541 2893 2253 2566 1792 2566 
C 1338 2566 1050 2893 1050 3341 
z
" transform="scale(0.015625)"/>
      <path id="AppleSDGothicNeo-Bold-902" d="M 2771 4109 
C 3059 3456 4058 3021 4819 2906 
L 5139 3494 
C 4320 3546 3162 4083 3162 4947 
L 3162 5088 
L 2387 5088 
L 2387 4947 
C 2387 4083 1370 3590 416 3494 
L 730 2912 
C 1555 3034 2483 3456 2771 4109 
z
M 3130 1568 
L 3130 2074 
L 5344 2074 
L 5344 2675 
L 192 2675 
L 192 2074 
L 2381 2074 
L 2381 1568 
L 3130 1568 
z
M 4979 19 
C 4051 154 3149 576 3149 1280 
L 3149 1363 
L 2381 1363 
L 2381 1280 
C 2381 570 1549 141 538 51 
L 877 -557 
C 1690 -467 2522 -26 2758 467 
C 3034 0 3898 -467 4640 -557 
L 4979 19 
z
" transform="scale(0.015625)"/>
      <path id="AppleSDGothicNeo-Bold-a57" d="M 3635 1363 
C 2778 1837 2227 2650 2227 3853 
L 2227 4000 
L 3341 4000 
L 3341 4614 
L 301 4614 
L 301 4000 
L 1453 4000 
L 1453 3846 
C 1453 2650 954 1773 6 1254 
L 467 698 
C 1133 1024 1709 1786 1850 2368 
C 2016 1818 2694 1082 3219 819 
L 3635 1363 
z
M 4653 5197 
L 3904 5197 
L 3904 -506 
L 4653 -506 
L 4653 2381 
L 5466 2381 
L 5466 3002 
L 4653 3002 
L 4653 5197 
z
" transform="scale(0.015625)"/>
      <path id="AppleSDGothicNeo-Bold-450" d="M 5050 -506 
L 5050 5197 
L 4339 5197 
L 4339 2963 
L 3834 2963 
L 3834 5094 
L 3136 5094 
L 3136 -243 
L 3834 -243 
L 3834 2368 
L 4339 2368 
L 4339 -506 
L 5050 -506 
z
M 2618 4525 
L 410 4525 
L 410 3923 
L 1894 3923 
C 1798 2790 1178 1792 64 1126 
L 550 608 
C 1946 1523 2624 2822 2618 4525 
z
" transform="scale(0.015625)"/>
      <path id="AppleSDGothicNeo-Bold-8fb" d="M 3130 -512 
L 3130 1517 
L 5344 1517 
L 5344 2106 
L 192 2106 
L 192 1517 
L 2374 1517 
L 2374 -512 
L 3130 -512 
z
M 5133 3187 
C 4218 3270 3168 3930 3168 4781 
L 3168 5075 
L 2374 5075 
L 2374 4781 
C 2374 3930 1414 3296 429 3187 
L 749 2573 
C 1613 2714 2522 3251 2771 3878 
C 3053 3251 3962 2707 4806 2579 
L 5133 3187 
z
" transform="scale(0.015625)"/>
      <path id="AppleSDGothicNeo-Bold-1e" d="M 365 2502 
L 3053 2502 
L 3053 3085 
L 365 3085 
L 365 2502 
z
M 365 1299 
L 3053 1299 
L 3053 1888 
L 365 1888 
L 365 1299 
z
" transform="scale(0.015625)"/>
      <path id="AppleSDGothicNeo-Bold-b30" d="M 3667 1120 
C 2854 1536 2323 2157 2272 3251 
L 3392 3251 
L 3392 3846 
L 352 3846 
L 352 3251 
L 1491 3251 
C 1453 2157 954 1472 58 986 
L 525 442 
C 1190 762 1754 1440 1894 2016 
C 2074 1466 2726 813 3277 563 
L 3667 1120 
z
M 4653 5197 
L 3904 5197 
L 3904 -506 
L 4653 -506 
L 4653 2362 
L 5472 2362 
L 5472 2970 
L 4653 2970 
L 4653 5197 
z
M 1011 4262 
L 2726 4262 
L 2726 4858 
L 1011 4858 
L 1011 4262 
z
" transform="scale(0.015625)"/>
      <path id="AppleSDGothicNeo-Bold-a17" d="M 3437 3955 
C 3437 4570 2842 5018 2010 5018 
C 1178 5018 563 4570 563 3968 
C 563 3341 1178 2906 2010 2906 
C 2842 2906 3437 3341 3437 3955 
z
M 3168 1363 
L 4256 1363 
L 4256 787 
L 5005 787 
L 5005 5197 
L 4256 5197 
L 4256 1901 
L 3168 1901 
L 3168 1363 
z
M 5094 -352 
L 5094 243 
L 1658 243 
L 1658 1331 
L 909 1331 
L 909 -352 
L 5094 -352 
z
M 2592 1062 
L 2592 2131 
C 3034 2163 3456 2202 3846 2266 
L 3802 2816 
C 3002 2714 1568 2643 166 2643 
C 205 2451 237 2246 269 2054 
C 698 2054 1254 2061 1850 2080 
L 1850 1062 
L 2592 1062 
z
M 2694 3955 
C 2694 3706 2432 3469 2010 3469 
C 1574 3469 1318 3706 1318 3955 
C 1318 4205 1574 4461 2010 4461 
C 2432 4461 2694 4205 2694 3955 
z
" transform="scale(0.015625)"/>
     </defs>
     <use xlink:href="#AppleSDGothicNeo-Bold-54"/>
     <use xlink:href="#AppleSDGothicNeo-Bold-49" transform="translate(44.5 0)"/>
     <use xlink:href="#AppleSDGothicNeo-Bold-42" transform="translate(101.203125 0)"/>
     <use xlink:href="#AppleSDGothicNeo-Bold-51" transform="translate(151.796875 0)"/>
     <use xlink:href="#AppleSDGothicNeo-Bold-46" transform="translate(209.5 0)"/>
     <use xlink:href="#AppleSDGothicNeo-Bold-1" transform="translate(262.59375 0)"/>
     <use xlink:href="#AppleSDGothicNeo-Bold-989" transform="translate(288.890625 0)"/>
     <use xlink:href="#AppleSDGothicNeo-Bold-1" transform="translate(375.390625 0)"/>
     <use xlink:href="#AppleSDGothicNeo-Bold-902" transform="translate(401.6875 0)"/>
     <use xlink:href="#AppleSDGothicNeo-Bold-a57" transform="translate(488.1875 0)"/>
     <use xlink:href="#AppleSDGothicNeo-Bold-1" transform="translate(574.6875 0)"/>
     <use xlink:href="#AppleSDGothicNeo-Bold-450" transform="translate(600.984375 0)"/>
     <use xlink:href="#AppleSDGothicNeo-Bold-8fb" transform="translate(687.484375 0)"/>
     <use xlink:href="#AppleSDGothicNeo-Bold-1" transform="translate(773.984375 0)"/>
     <use xlink:href="#AppleSDGothicNeo-Bold-1e" transform="translate(800.28125 0)"/>
     <use xlink:href="#AppleSDGothicNeo-Bold-1" transform="translate(853.6875 0)"/>
     <use xlink:href="#AppleSDGothicNeo-Bold-b30" transform="translate(879.984375 0)"/>
     <use xlink:href="#AppleSDGothicNeo-Bold-a17" transform="translate(966.484375 0)"/>
    </g>
   </g>
   <g id="text_2">
    <!-- (3,) — 1차원 벡터 -->
    <g style="fill: #1565c0" transform="translate(46.385391 41.2848) scale(0.105 -0.105)">
     <defs>
      <path id="AppleSDGothicNeo-Bold-9" d="M 1491 -403 
L 2125 -403 
C 1549 243 1062 1235 1062 2253 
L 1062 2432 
C 1062 3469 1549 4390 2125 5030 
L 1491 5030 
C 877 4454 307 3546 307 2374 
L 307 2259 
C 307 1088 877 173 1491 -403 
z
" transform="scale(0.015625)"/>
      <path id="AppleSDGothicNeo-Bold-14" d="M 1510 198 
C 2509 198 3130 704 3130 1510 
C 3130 2163 2746 2477 2195 2586 
C 2675 2752 2982 3085 2982 3610 
C 2982 4314 2432 4698 1619 4698 
C 1190 4698 659 4576 390 4422 
L 480 3840 
C 742 3962 1088 4070 1414 4070 
C 1894 4070 2195 3910 2195 3469 
C 2195 3059 1856 2829 1350 2816 
L 947 2810 
L 947 2240 
L 1402 2227 
C 1958 2221 2310 2029 2310 1562 
C 2310 1069 1965 826 1376 826 
C 1050 826 576 934 352 1075 
L 224 506 
C 474 346 986 198 1510 198 
z
" transform="scale(0.015625)"/>
      <path id="AppleSDGothicNeo-Bold-d" d="M 186 -602 
L 787 -602 
L 1248 691 
L 442 691 
L 186 -602 
z
" transform="scale(0.015625)"/>
      <path id="AppleSDGothicNeo-Bold-a" d="M 58 -403 
L 691 -403 
C 1299 173 1869 1082 1869 2259 
L 1869 2374 
C 1869 3539 1299 4454 691 5030 
L 58 5030 
C 640 4384 1120 3386 1120 2381 
L 1120 2195 
C 1120 1165 640 237 58 -403 
z
" transform="scale(0.015625)"/>
      <path id="AppleSDGothicNeo-Bold-6e" d="M 5171 2624 
L 26 2624 
L 26 2195 
L 5171 2195 
L 5171 2624 
z
" transform="scale(0.015625)"/>
      <path id="AppleSDGothicNeo-Bold-12" d="M 979 237 
L 1773 237 
L 1773 4659 
L 1357 4659 
L 243 4160 
L 243 3699 
L 979 3846 
L 979 237 
z
" transform="scale(0.015625)"/>
      <path id="AppleSDGothicNeo-Bold-7ed" d="M 2701 2176 
L 2701 3187 
L 3219 3187 
L 3219 1888 
L 3923 1888 
L 3923 5094 
L 3219 5094 
L 3219 3789 
L 2701 3789 
L 2701 4826 
L 1952 4826 
L 1952 4045 
L 1146 4045 
L 1146 4813 
L 390 4813 
L 390 2176 
L 2701 2176 
z
M 1050 1581 
L 1050 986 
L 4294 986 
L 4294 -512 
L 5043 -512 
L 5043 1581 
L 1050 1581 
z
M 5043 1837 
L 5043 5197 
L 4326 5197 
L 4326 1837 
L 5043 1837 
z
M 1952 2765 
L 1146 2765 
L 1146 3462 
L 1952 3462 
L 1952 2765 
z
" transform="scale(0.015625)"/>
      <path id="AppleSDGothicNeo-Bold-c20" d="M 1152 1376 
L 1152 2547 
L 2790 2547 
L 2790 3142 
L 1152 3142 
L 1152 4109 
L 3034 4109 
L 3034 4704 
L 416 4704 
L 416 774 
L 960 768 
C 1869 762 2854 826 3443 960 
L 3360 1530 
C 2714 1370 1830 1363 1152 1376 
z
M 4902 -506 
L 4902 5197 
L 4160 5197 
L 4160 3162 
L 3206 3162 
L 3206 2522 
L 4160 2522 
L 4160 -506 
L 4902 -506 
z
" transform="scale(0.015625)"/>
     </defs>
     <use xlink:href="#AppleSDGothicNeo-Bold-9"/>
     <use xlink:href="#AppleSDGothicNeo-Bold-14" transform="translate(33.59375 0)"/>
     <use xlink:href="#AppleSDGothicNeo-Bold-d" transform="translate(85.6875 0)"/>
     <use xlink:href="#AppleSDGothicNeo-Bold-a" transform="translate(110.78125 0)"/>
     <use xlink:href="#AppleSDGothicNeo-Bold-1" transform="translate(144.875 0)"/>
     <use xlink:href="#AppleSDGothicNeo-Bold-6e" transform="translate(171.171875 0)"/>
     <use xlink:href="#AppleSDGothicNeo-Bold-1" transform="translate(252.375 0)"/>
     <use xlink:href="#AppleSDGothicNeo-Bold-12" transform="translate(278.671875 0)"/>
     <use xlink:href="#AppleSDGothicNeo-Bold-b30" transform="translate(316.171875 0)"/>
     <use xlink:href="#AppleSDGothicNeo-Bold-a17" transform="translate(402.671875 0)"/>
     <use xlink:href="#AppleSDGothicNeo-Bold-1" transform="translate(489.171875 0)"/>
     <use xlink:href="#AppleSDGothicNeo-Bold-7ed" transform="translate(515.46875 0)"/>
     <use xlink:href="#AppleSDGothicNeo-Bold-c20" transform="translate(601.96875 0)"/>
    </g>
   </g>
   <g id="text_3">
    <!-- 3 -->
    <g transform="translate(79.218828 84.059022) scale(0.11 -0.11)">
     <defs>
      <path id="DejaVuSansMono-16" d="M 2425 2497 
Q 2884 2375 3128 2064 
Q 3372 1753 3372 1288 
Q 3372 644 2939 276 
Q 2506 -91 1741 -91 
Q 1419 -91 1084 -31 
Q 750 28 428 141 
L 428 769 
Q 747 603 1056 522 
Q 1366 441 1672 441 
Q 2191 441 2469 675 
Q 2747 909 2747 1350 
Q 2747 1756 2469 1995 
Q 2191 2234 1716 2234 
L 1234 2234 
L 1234 2753 
L 1716 2753 
Q 2150 2753 2394 2943 
Q 2638 3134 2638 3475 
Q 2638 3834 2411 4026 
Q 2184 4219 1766 4219 
Q 1488 4219 1191 4156 
Q 894 4094 569 3969 
L 569 4550 
Q 947 4650 1242 4700 
Q 1538 4750 1766 4750 
Q 2447 4750 2855 4408 
Q 3263 4066 3263 3500 
Q 3263 3116 3048 2859 
Q 2834 2603 2425 2497 
z
" transform="scale(0.015625)"/>
     </defs>
     <use xlink:href="#DejaVuSansMono-16"/>
    </g>
   </g>
   <g id="text_4">
    <!-- 5 -->
    <g transform="translate(79.218828 99.027822) scale(0.11 -0.11)">
     <defs>
      <path id="DejaVuSansMono-18" d="M 647 4666 
L 3009 4666 
L 3009 4134 
L 1222 4134 
L 1222 2988 
Q 1356 3038 1492 3061 
Q 1628 3084 1766 3084 
Q 2491 3084 2916 2656 
Q 3341 2228 3341 1497 
Q 3341 759 2895 334 
Q 2450 -91 1678 -91 
Q 1306 -91 998 -41 
Q 691 9 447 109 
L 447 750 
Q 734 594 1025 517 
Q 1316 441 1619 441 
Q 2141 441 2423 716 
Q 2706 991 2706 1497 
Q 2706 1997 2414 2275 
Q 2122 2553 1600 2553 
Q 1347 2553 1106 2495 
Q 866 2438 647 2322 
L 647 4666 
z
" transform="scale(0.015625)"/>
     </defs>
     <use xlink:href="#DejaVuSansMono-18"/>
    </g>
   </g>
   <g id="text_5">
    <!-- 7 -->
    <g transform="translate(79.218828 113.996622) scale(0.11 -0.11)">
     <defs>
      <path id="DejaVuSansMono-1a" d="M 434 4666 
L 3372 4666 
L 3372 4397 
L 1703 0 
L 1044 0 
L 2669 4134 
L 434 4134 
L 434 4666 
z
" transform="scale(0.015625)"/>
     </defs>
     <use xlink:href="#DejaVuSansMono-1a"/>
    </g>
   </g>
   <g id="text_6">
    <!-- 대괄호 한 겹 [ ] -->
    <g style="fill: #5f6368" transform="translate(56.780313 130.8768) scale(0.085 -0.085)">
     <defs>
      <path id="AppleSDGothicNeo-Regular-600" d="M 4960 -448 
L 4960 5146 
L 4480 5146 
L 4480 2944 
L 3731 2944 
L 3731 5011 
L 3258 5011 
L 3258 -160 
L 3731 -160 
L 3731 2534 
L 4480 2534 
L 4480 -448 
L 4960 -448 
z
M 902 1414 
L 902 4051 
L 2586 4051 
L 2586 4461 
L 416 4461 
L 416 992 
L 787 992 
C 1517 992 2458 1056 2989 1158 
L 2944 1555 
C 2470 1453 1632 1414 1069 1414 
L 902 1414 
z
" transform="scale(0.015625)"/>
      <path id="AppleSDGothicNeo-Regular-49a" d="M 4768 -429 
L 4768 -38 
L 1434 -38 
L 1434 499 
L 4563 499 
L 4563 1779 
L 902 1779 
L 902 1389 
L 4070 1389 
L 4070 877 
L 947 877 
L 947 -429 
L 4768 -429 
z
M 3693 2458 
L 3642 2835 
C 3174 2765 2502 2707 1830 2682 
L 1830 3661 
L 1344 3661 
L 1344 2669 
C 941 2669 454 2662 147 2662 
L 224 2253 
C 678 2253 1344 2266 1920 2291 
C 2451 2317 3194 2374 3693 2458 
z
M 5402 3296 
L 5402 3706 
L 4557 3706 
L 4557 5146 
L 4064 5146 
L 4064 2080 
L 4557 2080 
L 4557 3296 
L 5402 3296 
z
M 3226 4806 
L 525 4806 
L 525 4403 
L 2733 4403 
C 2733 3936 2694 3597 2586 3181 
L 3059 3104 
C 3168 3597 3226 4134 3226 4806 
z
" transform="scale(0.015625)"/>
      <path id="AppleSDGothicNeo-Regular-d10" d="M 4570 2317 
C 4570 2938 3866 3277 2771 3277 
C 1683 3277 979 2938 979 2317 
C 979 1747 1574 1408 2522 1363 
L 2522 621 
L 243 621 
L 243 211 
L 5293 211 
L 5293 621 
L 3008 621 
L 3008 1363 
C 3962 1402 4570 1741 4570 2317 
z
M 4058 2317 
C 4058 1920 3437 1754 2771 1754 
C 2118 1754 1491 1920 1491 2317 
C 1491 2714 2118 2880 2771 2880 
C 3430 2880 4058 2714 4058 2317 
z
M 5056 3578 
L 5056 3987 
L 486 3987 
L 486 3578 
L 5056 3578 
z
M 3770 4448 
L 3770 4870 
L 1754 4870 
L 1754 4448 
L 3770 4448 
z
" transform="scale(0.015625)"/>
      <path id="AppleSDGothicNeo-Regular-1" transform="scale(0.015625)"/>
      <path id="AppleSDGothicNeo-Regular-ce0" d="M 5395 2842 
L 5395 3251 
L 4544 3251 
L 4544 5146 
L 4058 5146 
L 4058 1018 
L 4544 1018 
L 4544 2842 
L 5395 2842 
z
M 4762 -269 
L 4762 141 
L 1523 141 
L 1523 1165 
L 1037 1165 
L 1037 -269 
L 4762 -269 
z
M 2630 4518 
L 2630 4947 
L 1018 4947 
L 1018 4518 
L 2630 4518 
z
M 3494 3693 
L 3494 4096 
L 218 4096 
L 218 3693 
L 3494 3693 
z
M 3174 2413 
C 3174 3014 2611 3392 1856 3392 
C 1107 3392 544 3014 544 2413 
C 544 1824 1114 1434 1856 1434 
C 2611 1434 3174 1824 3174 2413 
z
M 2714 2413 
C 2714 2048 2310 1824 1856 1824 
C 1408 1824 1005 2048 1005 2413 
C 1005 2784 1408 3008 1856 3008 
C 2310 3008 2714 2784 2714 2413 
z
" transform="scale(0.015625)"/>
      <path id="AppleSDGothicNeo-Regular-480" d="M 4819 -371 
L 4819 1818 
L 4326 1818 
L 4326 1120 
L 1715 1120 
L 1715 1811 
L 1229 1811 
L 1229 -371 
L 4819 -371 
z
M 3078 4762 
L 582 4762 
L 582 4352 
L 2547 4352 
C 2394 3398 1389 2630 275 2381 
C 378 2253 474 2118 570 1984 
C 2010 2438 2970 3302 3078 4762 
z
M 4813 2093 
L 4813 5146 
L 4326 5146 
L 4326 4173 
L 3162 4173 
L 3162 3763 
L 4326 3763 
L 4326 3066 
L 3091 3066 
L 3091 2662 
L 4326 2662 
L 4326 2093 
L 4813 2093 
z
M 4326 32 
L 1715 32 
L 1715 723 
L 4326 723 
L 4326 32 
z
" transform="scale(0.015625)"/>
      <path id="AppleSDGothicNeo-Regular-3c" d="M 557 -384 
L 1914 -384 
L 1914 6 
L 1050 6 
L 1050 4550 
L 1914 4550 
L 1914 4941 
L 557 4941 
L 557 -384 
z
" transform="scale(0.015625)"/>
      <path id="AppleSDGothicNeo-Regular-3e" d="M 269 -384 
L 1619 -384 
L 1619 4941 
L 269 4941 
L 269 4550 
L 1133 4550 
L 1133 6 
L 269 6 
L 269 -384 
z
" transform="scale(0.015625)"/>
     </defs>
     <use xlink:href="#AppleSDGothicNeo-Regular-600"/>
     <use xlink:href="#AppleSDGothicNeo-Regular-49a" transform="translate(86.5 0)"/>
     <use xlink:href="#AppleSDGothicNeo-Regular-d10" transform="translate(173 0)"/>
     <use xlink:href="#AppleSDGothicNeo-Regular-1" transform="translate(259.5 0)"/>
     <use xlink:href="#AppleSDGothicNeo-Regular-ce0" transform="translate(285.796875 0)"/>
     <use xlink:href="#AppleSDGothicNeo-Regular-1" transform="translate(372.296875 0)"/>
     <use xlink:href="#AppleSDGothicNeo-Regular-480" transform="translate(398.59375 0)"/>
     <use xlink:href="#AppleSDGothicNeo-Regular-1" transform="translate(485.09375 0)"/>
     <use xlink:href="#AppleSDGothicNeo-Regular-3c" transform="translate(511.390625 0)"/>
     <use xlink:href="#AppleSDGothicNeo-Regular-1" transform="translate(545.484375 0)"/>
     <use xlink:href="#AppleSDGothicNeo-Regular-3e" transform="translate(571.78125 0)"/>
    </g>
    <!-- 행/열 개념 없음 -->
    <g style="fill: #5f6368" transform="translate(56.800898 141.0768) scale(0.085 -0.085)">
     <defs>
      <path id="AppleSDGothicNeo-Regular-cef" d="M 4947 518 
C 4947 1101 4250 1466 3066 1466 
C 1888 1466 1190 1101 1190 518 
C 1190 -77 1888 -442 3066 -442 
C 4250 -442 4947 -77 4947 518 
z
M 4960 1478 
L 4960 5146 
L 4474 5146 
L 4474 3533 
L 3795 3533 
L 3795 5043 
L 3322 5043 
L 3322 1683 
L 3795 1683 
L 3795 3130 
L 4474 3130 
L 4474 1478 
L 4960 1478 
z
M 2893 2573 
C 2893 3130 2368 3450 1683 3450 
C 998 3450 474 3130 474 2573 
C 474 2022 998 1709 1683 1709 
C 2368 1709 2893 2022 2893 2573 
z
M 3066 1056 
C 3923 1056 4454 845 4454 512 
C 4454 179 3923 -32 3066 -32 
C 2208 -32 1683 179 1683 512 
C 1683 845 2208 1056 3066 1056 
z
M 3046 3699 
L 3046 4096 
L 192 4096 
L 192 3699 
L 3046 3699 
z
M 2413 2573 
C 2413 2291 2093 2093 1683 2093 
C 1280 2093 954 2291 954 2573 
C 954 2867 1280 3059 1683 3059 
C 2086 3059 2413 2867 2413 2573 
z
M 2374 4493 
L 2374 4915 
L 922 4915 
L 922 4493 
L 2374 4493 
z
" transform="scale(0.015625)"/>
      <path id="AppleSDGothicNeo-Regular-10" d="M 58 -384 
L 499 -384 
L 2003 4941 
L 1562 4941 
L 58 -384 
z
" transform="scale(0.015625)"/>
      <path id="AppleSDGothicNeo-Regular-9cc" d="M 3283 4096 
L 4326 4096 
L 4326 3315 
L 3283 3315 
L 3283 2899 
L 4326 2899 
L 4326 2214 
L 4813 2214 
L 4813 5146 
L 4326 5146 
L 4326 4506 
L 3283 4506 
L 3283 4096 
z
M 5024 -410 
L 5024 -6 
L 1709 -6 
L 1709 621 
L 4813 621 
L 4813 1965 
L 1216 1965 
L 1216 1562 
L 4326 1562 
L 4326 992 
L 1222 992 
L 1222 -410 
L 5024 -410 
z
M 1728 4954 
C 947 4954 314 4410 314 3635 
C 314 2842 954 2336 1728 2336 
C 2502 2336 3136 2848 3136 3635 
C 3136 4416 2502 4954 1728 4954 
z
M 1728 4531 
C 2285 4531 2656 4173 2656 3635 
C 2656 3098 2285 2758 1728 2758 
C 1197 2758 787 3098 787 3642 
C 787 4179 1203 4531 1728 4531 
z
" transform="scale(0.015625)"/>
      <path id="AppleSDGothicNeo-Regular-450" d="M 4960 -448 
L 4960 5146 
L 4480 5146 
L 4480 2944 
L 3750 2944 
L 3750 5011 
L 3270 5011 
L 3270 -166 
L 3750 -166 
L 3750 2541 
L 4480 2541 
L 4480 -448 
L 4960 -448 
z
M 2656 4486 
L 416 4486 
L 416 4077 
L 2144 4077 
C 2093 2938 1408 1747 224 1075 
L 550 717 
C 1875 1517 2637 2822 2656 4486 
z
" transform="scale(0.015625)"/>
      <path id="AppleSDGothicNeo-Regular-59b" d="M 4819 -365 
L 4819 1562 
L 1222 1562 
L 1222 -365 
L 4819 -365 
z
M 4333 38 
L 1709 38 
L 1709 1165 
L 4333 1165 
L 4333 38 
z
M 2573 3149 
L 4326 3149 
L 4326 1888 
L 4813 1888 
L 4813 5146 
L 4326 5146 
L 4326 4474 
L 2573 4474 
L 2573 4077 
L 4326 4077 
L 4326 3539 
L 2573 3539 
L 2573 3149 
z
M 3482 2746 
C 2848 2605 1754 2534 998 2528 
L 998 4813 
L 518 4813 
L 518 2106 
L 934 2106 
C 1664 2106 2938 2208 3533 2336 
L 3482 2746 
z
" transform="scale(0.015625)"/>
      <path id="AppleSDGothicNeo-Regular-9b9" d="M 4813 2138 
L 4813 5146 
L 4326 5146 
L 4326 3814 
L 3386 3814 
L 3386 3411 
L 4326 3411 
L 4326 2138 
L 4813 2138 
z
M 5363 -83 
C 4762 205 4378 781 4378 1389 
L 4378 1862 
L 3904 1862 
L 3904 1389 
C 3904 794 3578 179 2944 -109 
L 3213 -467 
C 3654 -230 4032 230 4134 602 
C 4256 224 4666 -205 5075 -442 
L 5363 -83 
z
M 2810 -371 
L 2810 1798 
L 2349 1798 
L 2349 1101 
L 1363 1101 
L 1363 1798 
L 902 1798 
L 902 -371 
L 2810 -371 
z
M 2349 13 
L 1363 13 
L 1363 730 
L 2349 730 
L 2349 13 
z
M 1728 4870 
C 941 4870 288 4346 288 3558 
C 288 2765 947 2266 1728 2266 
C 2515 2266 3162 2765 3162 3565 
C 3162 4358 2515 4870 1728 4870 
z
M 1728 4448 
C 2304 4448 2675 4083 2675 3558 
C 2675 3027 2298 2669 1728 2669 
C 1178 2669 774 3027 774 3565 
C 774 4090 1178 4448 1728 4448 
z
" transform="scale(0.015625)"/>
      <path id="AppleSDGothicNeo-Regular-a3a" d="M 5293 2035 
L 5293 2445 
L 243 2445 
L 243 2035 
L 5293 2035 
z
M 4678 -371 
L 4678 1453 
L 864 1453 
L 864 -371 
L 4678 -371 
z
M 4192 32 
L 1350 32 
L 1350 1056 
L 4192 1056 
L 4192 32 
z
M 4723 3949 
C 4723 4582 3994 4998 2765 4998 
C 1542 4998 819 4582 819 3949 
C 819 3315 1542 2899 2765 2899 
C 3994 2899 4723 3315 4723 3949 
z
M 4250 3949 
C 4250 3539 3661 3290 2765 3290 
C 1869 3290 1293 3539 1293 3949 
C 1293 4365 1869 4608 2765 4608 
C 3661 4608 4250 4365 4250 3949 
z
" transform="scale(0.015625)"/>
     </defs>
     <use xlink:href="#AppleSDGothicNeo-Regular-cef"/>
     <use xlink:href="#AppleSDGothicNeo-Regular-10" transform="translate(86.5 0)"/>
     <use xlink:href="#AppleSDGothicNeo-Regular-9cc" transform="translate(120.296875 0)"/>
     <use xlink:href="#AppleSDGothicNeo-Regular-1" transform="translate(206.796875 0)"/>
     <use xlink:href="#AppleSDGothicNeo-Regular-450" transform="translate(233.09375 0)"/>
     <use xlink:href="#AppleSDGothicNeo-Regular-59b" transform="translate(319.59375 0)"/>
     <use xlink:href="#AppleSDGothicNeo-Regular-1" transform="translate(406.09375 0)"/>
     <use xlink:href="#AppleSDGothicNeo-Regular-9b9" transform="translate(432.390625 0)"/>
     <use xlink:href="#AppleSDGothicNeo-Regular-a3a" transform="translate(518.890625 0)"/>
    </g>
   </g>
   <g id="text_7">
    <!-- (3,1) — 2차원 행렬 -->
    <g style="fill: #188038" transform="translate(185.612119 41.2848) scale(0.105 -0.105)">
     <defs>
      <path id="AppleSDGothicNeo-Bold-13" d="M 333 262 
L 3123 262 
L 3123 877 
L 1363 877 
L 1882 1408 
C 2419 1965 3085 2662 3085 3443 
C 3085 4237 2592 4698 1632 4698 
C 1126 4698 678 4538 384 4365 
L 512 3782 
C 755 3930 1114 4077 1421 4077 
C 1978 4077 2266 3872 2266 3341 
C 2266 2790 1779 2246 1171 1606 
L 333 723 
L 333 262 
z
" transform="scale(0.015625)"/>
      <path id="AppleSDGothicNeo-Bold-cef" d="M 5069 486 
C 5069 1114 4307 1485 3072 1485 
C 1830 1485 1062 1114 1062 486 
C 1062 -147 1830 -518 3072 -518 
C 4307 -518 5069 -147 5069 486 
z
M 5043 1510 
L 5043 5197 
L 4333 5197 
L 4333 3584 
L 3866 3584 
L 3866 5094 
L 3174 5094 
L 3174 1696 
L 3866 1696 
L 3866 2976 
L 4333 2976 
L 4333 1510 
L 5043 1510 
z
M 2829 2477 
C 2829 3021 2355 3392 1613 3392 
C 870 3392 403 3021 403 2477 
C 403 1939 870 1562 1613 1562 
C 2355 1562 2829 1939 2829 2477 
z
M 4307 480 
C 4307 211 3827 58 3066 58 
C 2304 58 1843 211 1843 480 
C 1843 749 2304 915 3066 915 
C 3827 915 4307 749 4307 480 
z
M 205 3571 
L 2931 3571 
L 2931 4147 
L 205 4147 
L 205 3571 
z
M 851 4397 
L 2362 4397 
L 2362 4973 
L 851 4973 
L 851 4397 
z
M 2144 2477 
C 2144 2285 1952 2131 1613 2131 
C 1274 2131 1082 2285 1082 2477 
C 1082 2669 1274 2822 1613 2822 
C 1952 2822 2144 2669 2144 2477 
z
" transform="scale(0.015625)"/>
      <path id="AppleSDGothicNeo-Bold-6f3" d="M 5069 -461 
L 5069 141 
L 1888 141 
L 1888 486 
L 4902 486 
L 4902 1971 
L 1120 1971 
L 1120 1376 
L 4160 1376 
L 4160 1024 
L 1146 1024 
L 1146 -461 
L 5069 -461 
z
M 3187 2509 
C 3162 2694 3123 2886 3091 3066 
C 2714 2970 2042 2950 1421 2950 
L 1152 2950 
L 1152 3424 
L 2906 3424 
L 2906 4986 
L 390 4986 
L 390 4397 
L 2157 4397 
L 2157 3981 
L 390 3981 
L 390 2362 
L 1133 2362 
C 1875 2362 2701 2387 3187 2509 
z
M 4902 2266 
L 4902 5197 
L 4160 5197 
L 4160 4570 
L 3309 4570 
L 3309 3974 
L 4160 3974 
L 4160 3533 
L 3309 3533 
L 3309 2931 
L 4160 2931 
L 4160 2266 
L 4902 2266 
z
" transform="scale(0.015625)"/>
     </defs>
     <use xlink:href="#AppleSDGothicNeo-Bold-9"/>
     <use xlink:href="#AppleSDGothicNeo-Bold-14" transform="translate(33.59375 0)"/>
     <use xlink:href="#AppleSDGothicNeo-Bold-d" transform="translate(85.6875 0)"/>
     <use xlink:href="#AppleSDGothicNeo-Bold-12" transform="translate(102.875 0)"/>
     <use xlink:href="#AppleSDGothicNeo-Bold-a" transform="translate(140.375 0)"/>
     <use xlink:href="#AppleSDGothicNeo-Bold-1" transform="translate(174.46875 0)"/>
     <use xlink:href="#AppleSDGothicNeo-Bold-6e" transform="translate(200.765625 0)"/>
     <use xlink:href="#AppleSDGothicNeo-Bold-1" transform="translate(281.96875 0)"/>
     <use xlink:href="#AppleSDGothicNeo-Bold-13" transform="translate(308.265625 0)"/>
     <use xlink:href="#AppleSDGothicNeo-Bold-b30" transform="translate(361.765625 0)"/>
     <use xlink:href="#AppleSDGothicNeo-Bold-a17" transform="translate(448.265625 0)"/>
     <use xlink:href="#AppleSDGothicNeo-Bold-1" transform="translate(534.765625 0)"/>
     <use xlink:href="#AppleSDGothicNeo-Bold-cef" transform="translate(561.0625 0)"/>
     <use xlink:href="#AppleSDGothicNeo-Bold-6f3" transform="translate(647.5625 0)"/>
    </g>
   </g>
   <g id="text_8">
    <!-- 3 -->
    <g transform="translate(220.839228 84.059022) scale(0.11 -0.11)">
     <use xlink:href="#DejaVuSansMono-16"/>
    </g>
   </g>
   <g id="text_9">
    <!-- 5 -->
    <g transform="translate(220.839228 99.027822) scale(0.11 -0.11)">
     <use xlink:href="#DejaVuSansMono-18"/>
    </g>
   </g>
   <g id="text_10">
    <!-- 7 -->
    <g transform="translate(220.839228 113.996622) scale(0.11 -0.11)">
     <use xlink:href="#DejaVuSansMono-1a"/>
    </g>
   </g>
   <g id="text_11">
    <!-- 대괄호 두 겹 [[ ]] -->
    <g style="fill: #5f6368" transform="translate(195.502744 130.8768) scale(0.085 -0.085)">
     <defs>
      <path id="AppleSDGothicNeo-Regular-641" d="M 4730 2605 
L 4730 3008 
L 1363 3008 
L 1363 4397 
L 4659 4397 
L 4659 4806 
L 877 4806 
L 877 2605 
L 4730 2605 
z
M 3002 -390 
L 3002 1466 
L 5293 1466 
L 5293 1875 
L 243 1875 
L 243 1466 
L 2515 1466 
L 2515 -390 
L 3002 -390 
z
" transform="scale(0.015625)"/>
     </defs>
     <use xlink:href="#AppleSDGothicNeo-Regular-600"/>
     <use xlink:href="#AppleSDGothicNeo-Regular-49a" transform="translate(86.5 0)"/>
     <use xlink:href="#AppleSDGothicNeo-Regular-d10" transform="translate(173 0)"/>
     <use xlink:href="#AppleSDGothicNeo-Regular-1" transform="translate(259.5 0)"/>
     <use xlink:href="#AppleSDGothicNeo-Regular-641" transform="translate(285.796875 0)"/>
     <use xlink:href="#AppleSDGothicNeo-Regular-1" transform="translate(372.296875 0)"/>
     <use xlink:href="#AppleSDGothicNeo-Regular-480" transform="translate(398.59375 0)"/>
     <use xlink:href="#AppleSDGothicNeo-Regular-1" transform="translate(485.09375 0)"/>
     <use xlink:href="#AppleSDGothicNeo-Regular-3c" transform="translate(511.390625 0)"/>
     <use xlink:href="#AppleSDGothicNeo-Regular-3c" transform="translate(545.484375 0)"/>
     <use xlink:href="#AppleSDGothicNeo-Regular-1" transform="translate(579.578125 0)"/>
     <use xlink:href="#AppleSDGothicNeo-Regular-3e" transform="translate(605.875 0)"/>
     <use xlink:href="#AppleSDGothicNeo-Regular-3e" transform="translate(639.96875 0)"/>
    </g>
    <!-- 3행 1열 -->
    <g style="fill: #5f6368" transform="translate(211.885166 141.0768) scale(0.085 -0.085)">
     <defs>
      <path id="AppleSDGothicNeo-Regular-14" d="M 1491 205 
C 2445 205 3053 730 3053 1478 
C 3053 2144 2630 2458 2074 2566 
C 2560 2726 2893 3040 2893 3571 
C 2893 4243 2368 4634 1600 4634 
C 1229 4634 723 4474 467 4301 
L 544 3891 
C 813 4045 1146 4198 1498 4198 
C 2022 4198 2362 4013 2362 3488 
C 2362 3008 1984 2726 1427 2726 
L 1043 2726 
L 1043 2291 
L 1459 2291 
C 2112 2291 2534 2029 2534 1478 
C 2534 947 2138 634 1427 634 
C 1107 634 678 755 435 915 
L 326 512 
C 563 346 992 205 1491 205 
z
" transform="scale(0.015625)"/>
      <path id="AppleSDGothicNeo-Regular-12" d="M 1146 243 
L 1632 243 
L 1632 4634 
L 1363 4634 
L 352 4160 
L 352 3866 
L 1146 4051 
L 1146 243 
z
" transform="scale(0.015625)"/>
     </defs>
     <use xlink:href="#AppleSDGothicNeo-Regular-14"/>
     <use xlink:href="#AppleSDGothicNeo-Regular-cef" transform="translate(53.59375 0)"/>
     <use xlink:href="#AppleSDGothicNeo-Regular-1" transform="translate(140.09375 0)"/>
     <use xlink:href="#AppleSDGothicNeo-Regular-12" transform="translate(166.390625 0)"/>
     <use xlink:href="#AppleSDGothicNeo-Regular-9cc" transform="translate(202.09375 0)"/>
    </g>
   </g>
   <g id="text_12">
    <!-- vs -->
    <g style="fill: #999999" transform="translate(144.505866 99.4968) scale(0.15 -0.15)">
     <defs>
      <path id="AppleSDGothicNeo-Bold-57" d="M 1331 262 
L 2080 262 
L 3270 3558 
L 2560 3558 
L 1754 1152 
L 1722 1152 
L 922 3558 
L 134 3558 
L 1331 262 
z
" transform="scale(0.015625)"/>
     </defs>
     <use xlink:href="#AppleSDGothicNeo-Bold-57"/>
     <use xlink:href="#AppleSDGothicNeo-Bold-54" transform="translate(53.203125 0)"/>
    </g>
   </g>
   <g id="text_13">
    <g id="patch_8">
     <path d="M 47.364312 168.4184 
L 268.355687 168.4184 
Q 271.435688 168.4184 271.435688 165.3384 
L 271.435688 154.7784 
Q 271.435688 151.6984 268.355687 151.6984 
L 47.364312 151.6984 
Q 44.284312 151.6984 44.284312 154.7784 
L 44.284312 165.3384 
Q 44.284312 168.4184 47.364312 168.4184 
z
" style="fill: #fffbf0; stroke: #f9ab00; stroke-width: 1.2; stroke-linejoin: miter"/>
    </g>
    <!-- 곱 규칙: x(3,) @ W(3,4) → x길이 3 == W행 3 이면 OK, 결과 (4,) -->
    <g style="fill: #b26a00" transform="translate(47.364312 162.6984) scale(0.088 -0.088)">
     <defs>
      <path id="AppleSDGothicNeo-Regular-493" d="M 4640 -358 
L 4640 1830 
L 4154 1830 
L 4154 1152 
L 1357 1152 
L 1357 1824 
L 870 1824 
L 870 -358 
L 4640 -358 
z
M 5293 2310 
L 5293 2714 
L 2803 2714 
L 2803 3731 
L 2317 3731 
L 2317 2714 
L 243 2714 
L 243 2310 
L 5293 2310 
z
M 4627 4915 
L 851 4915 
L 851 4512 
L 4128 4512 
L 4122 4109 
C 4115 3776 4070 3437 3994 3130 
L 4467 3066 
C 4563 3462 4621 3872 4627 4403 
L 4627 4915 
z
M 4154 45 
L 1357 45 
L 1357 749 
L 4154 749 
L 4154 45 
z
" transform="scale(0.015625)"/>
      <path id="AppleSDGothicNeo-Regular-4cf" d="M 4621 4749 
L 838 4749 
L 838 4346 
L 4122 4346 
C 4122 3834 4058 2886 3904 2323 
L 243 2323 
L 243 1914 
L 1536 1914 
L 1536 -448 
L 2022 -448 
L 2022 1914 
L 3501 1914 
L 3501 -448 
L 3987 -448 
L 3987 1914 
L 5293 1914 
L 5293 2323 
L 4397 2323 
C 4563 3078 4621 4090 4621 4749 
z
" transform="scale(0.015625)"/>
      <path id="AppleSDGothicNeo-Regular-b97" d="M 3654 2381 
C 2982 2534 2278 3066 2234 3731 
L 3514 3731 
L 3514 4134 
L 461 4134 
L 461 3731 
L 1734 3731 
C 1690 3040 979 2426 262 2208 
L 531 1824 
C 1171 2054 1805 2579 1984 3085 
C 2253 2566 2886 2138 3398 1984 
L 3654 2381 
z
M 4819 -448 
L 4819 1504 
L 1088 1504 
L 1088 1101 
L 4333 1101 
L 4333 -448 
L 4819 -448 
z
M 4813 1805 
L 4813 5146 
L 4326 5146 
L 4326 1805 
L 4813 1805 
z
M 2746 4614 
L 2746 5024 
L 1222 5024 
L 1222 4614 
L 2746 4614 
z
" transform="scale(0.015625)"/>
      <path id="AppleSDGothicNeo-Regular-1b" d="M 640 3014 
L 1190 3014 
L 1190 3590 
L 640 3590 
L 640 3014 
z
M 640 659 
L 1190 659 
L 1190 1242 
L 640 1242 
L 640 659 
z
" transform="scale(0.015625)"/>
      <path id="AppleSDGothicNeo-Regular-59" d="M 147 269 
L 685 269 
L 1510 1536 
L 2317 269 
L 2899 269 
L 1837 1882 
L 2822 3443 
L 2291 3443 
L 1568 2234 
L 774 3443 
L 198 3443 
L 1229 1882 
L 147 269 
z
" transform="scale(0.015625)"/>
      <path id="AppleSDGothicNeo-Regular-9" d="M 1472 -384 
L 1914 -384 
C 1344 256 883 1235 883 2221 
L 883 2374 
C 883 3392 1344 4307 1914 4941 
L 1472 4941 
C 883 4339 365 3469 365 2330 
L 365 2227 
C 365 1094 883 218 1472 -384 
z
" transform="scale(0.015625)"/>
      <path id="AppleSDGothicNeo-Regular-d" d="M 122 -563 
L 467 -563 
L 941 685 
L 358 685 
L 122 -563 
z
" transform="scale(0.015625)"/>
      <path id="AppleSDGothicNeo-Regular-a" d="M 115 -384 
L 550 -384 
C 1146 218 1651 1088 1651 2227 
L 1651 2330 
C 1651 3462 1146 4339 550 4941 
L 115 4941 
C 678 4301 1146 3322 1146 2336 
L 1146 2176 
C 1146 1165 678 250 115 -384 
z
" transform="scale(0.015625)"/>
      <path id="AppleSDGothicNeo-Regular-21" d="M 2829 -659 
C 3379 -659 3859 -538 4224 -378 
L 4224 -58 
C 3936 -154 3424 -307 2835 -307 
C 1446 -307 774 442 774 1658 
C 774 3040 1568 4154 3072 4154 
C 4301 4154 4883 3398 4883 2317 
C 4883 1376 4550 858 4000 858 
C 3757 858 3686 992 3731 1222 
L 4109 3232 
L 3654 3232 
L 3616 3040 
L 3590 3040 
C 3456 3168 3219 3290 2912 3290 
C 2093 3290 1587 2566 1587 1517 
C 1587 890 1894 499 2451 499 
C 2790 499 3059 691 3238 896 
L 3258 896 
C 3315 659 3520 499 3923 499 
C 4781 499 5306 1190 5306 2355 
C 5306 3597 4461 4518 3085 4518 
C 1306 4518 358 3110 358 1651 
C 358 198 1248 -659 2829 -659 
z
M 2579 877 
C 2253 877 2080 1094 2080 1523 
C 2080 2317 2304 2906 2912 2906 
C 3200 2906 3411 2797 3514 2675 
L 3258 1210 
C 3091 1043 2874 877 2579 877 
z
" transform="scale(0.015625)"/>
      <path id="AppleSDGothicNeo-Regular-38" d="M 1254 269 
L 1754 269 
L 2739 3706 
L 2752 3706 
L 3712 269 
L 4205 269 
L 5274 4563 
L 4813 4563 
L 3968 1062 
L 3962 1062 
L 2963 4563 
L 2554 4563 
L 1549 1062 
L 1530 1062 
L 685 4563 
L 179 4563 
L 1254 269 
z
" transform="scale(0.015625)"/>
      <path id="AppleSDGothicNeo-Regular-15" d="M 2214 166 
L 2682 166 
L 2682 1171 
L 3398 1171 
L 3398 1587 
L 2682 1587 
L 2682 4621 
L 2285 4621 
L 186 1555 
L 186 1171 
L 2214 1171 
L 2214 166 
z
M 730 1587 
L 2214 3814 
L 2214 1587 
L 730 1587 
z
" transform="scale(0.015625)"/>
      <path id="AppleSDGothicNeo-Regular-aa" d="M 0 2400 
L 3328 2400 
L 2874 1645 
L 2963 1542 
L 4218 2579 
L 2963 3622 
L 2874 3520 
L 3328 2758 
L 0 2758 
L 0 2400 
z
" transform="scale(0.015625)"/>
      <path id="AppleSDGothicNeo-Regular-4e1" d="M 5011 -410 
L 5011 -6 
L 1677 -6 
L 1677 608 
L 4806 608 
L 4806 1965 
L 1171 1965 
L 1171 1562 
L 4320 1562 
L 4320 979 
L 1190 979 
L 1190 -410 
L 5011 -410 
z
M 4813 2310 
L 4813 5146 
L 4326 5146 
L 4326 2310 
L 4813 2310 
z
M 602 4838 
L 602 4429 
L 2573 4429 
C 2374 3546 1542 2829 314 2515 
L 563 2112 
C 1926 2522 2989 3360 3136 4838 
L 602 4838 
z
" transform="scale(0.015625)"/>
      <path id="AppleSDGothicNeo-Regular-a49" d="M 4845 -448 
L 4845 5146 
L 4358 5146 
L 4358 -448 
L 4845 -448 
z
M 429 2752 
C 429 1562 954 768 1869 768 
C 2797 768 3315 1562 3315 2746 
C 3315 3930 2797 4723 1869 4723 
C 954 4723 429 3930 429 2752 
z
M 2854 2746 
C 2854 1830 2464 1190 1869 1190 
C 1280 1190 890 1830 890 2746 
C 890 3667 1280 4301 1869 4301 
C 2464 4301 2854 3667 2854 2746 
z
" transform="scale(0.015625)"/>
      <path id="AppleSDGothicNeo-Regular-1e" d="M 422 2816 
L 2970 2816 
L 2970 3226 
L 422 3226 
L 422 2816 
z
M 422 1542 
L 2970 1542 
L 2970 1952 
L 422 1952 
L 422 1542 
z
" transform="scale(0.015625)"/>
      <path id="AppleSDGothicNeo-Regular-776" d="M 4326 3770 
L 4326 2938 
L 3283 2938 
L 3283 2534 
L 4326 2534 
L 4326 1082 
L 4813 1082 
L 4813 5146 
L 4326 5146 
L 4326 4173 
L 3283 4173 
L 3283 3770 
L 4326 3770 
z
M 4934 -262 
L 4934 147 
L 1696 147 
L 1696 1453 
L 1210 1453 
L 1210 -262 
L 4934 -262 
z
M 3046 2035 
L 3046 4646 
L 493 4646 
L 493 2035 
L 3046 2035 
z
M 2554 2432 
L 979 2432 
L 979 4243 
L 2554 4243 
L 2554 2432 
z
" transform="scale(0.015625)"/>
      <path id="AppleSDGothicNeo-Regular-30" d="M 2182 198 
C 3360 198 4070 1011 4070 2362 
L 4070 2464 
C 4070 3872 3360 4634 2202 4634 
C 1018 4634 307 3821 307 2470 
L 307 2368 
C 307 960 1018 198 2182 198 
z
M 2195 614 
C 1235 614 851 1331 851 2368 
L 851 2566 
C 851 3526 1293 4218 2176 4218 
C 3149 4211 3526 3507 3526 2464 
L 3526 2266 
C 3526 1312 3085 614 2195 614 
z
" transform="scale(0.015625)"/>
      <path id="AppleSDGothicNeo-Regular-2c" d="M 2970 269 
L 3565 269 
L 1747 2509 
L 3488 4563 
L 2944 4563 
L 1152 2458 
L 2970 269 
z
M 557 269 
L 1062 269 
L 1062 4563 
L 557 4563 
L 557 269 
z
" transform="scale(0.015625)"/>
      <path id="AppleSDGothicNeo-Regular-47e" d="M 5024 -416 
L 5024 -32 
L 1683 -32 
L 1683 640 
L 4813 640 
L 4813 1990 
L 1178 1990 
L 1178 1606 
L 4326 1606 
L 4326 992 
L 1197 992 
L 1197 -416 
L 5024 -416 
z
M 3104 4838 
L 550 4838 
L 550 4429 
L 2547 4429 
C 2362 3514 1542 2771 314 2464 
L 557 2067 
C 1952 2470 2989 3366 3104 4838 
z
M 3162 3936 
L 4326 3936 
L 4326 3290 
L 3091 3290 
L 3091 2899 
L 4326 2899 
L 4326 2298 
L 4813 2298 
L 4813 5146 
L 4326 5146 
L 4326 4320 
L 3162 4320 
L 3162 3936 
z
" transform="scale(0.015625)"/>
      <path id="AppleSDGothicNeo-Regular-497" d="M 5485 2394 
L 5485 2810 
L 4576 2810 
L 4576 5146 
L 4090 5146 
L 4090 -448 
L 4576 -448 
L 4576 2394 
L 5485 2394 
z
M 3770 966 
L 3731 1370 
C 3232 1293 2528 1242 1856 1210 
L 1856 2963 
L 1363 2963 
L 1363 1197 
C 947 1184 448 1190 141 1190 
L 211 762 
C 678 762 1299 781 1862 806 
C 2406 838 3232 896 3770 966 
z
M 3347 4557 
L 422 4557 
L 422 4147 
L 2854 4147 
C 2880 3520 2803 2598 2682 2054 
L 3149 1990 
C 3270 2534 3360 3699 3347 4557 
z
" transform="scale(0.015625)"/>
     </defs>
     <use xlink:href="#AppleSDGothicNeo-Regular-493"/>
     <use xlink:href="#AppleSDGothicNeo-Regular-1" transform="translate(86.5 0)"/>
     <use xlink:href="#AppleSDGothicNeo-Regular-4cf" transform="translate(112.796875 0)"/>
     <use xlink:href="#AppleSDGothicNeo-Regular-b97" transform="translate(199.296875 0)"/>
     <use xlink:href="#AppleSDGothicNeo-Regular-1b" transform="translate(285.796875 0)"/>
     <use xlink:href="#AppleSDGothicNeo-Regular-1" transform="translate(314.203125 0)"/>
     <use xlink:href="#AppleSDGothicNeo-Regular-59" transform="translate(340.5 0)"/>
     <use xlink:href="#AppleSDGothicNeo-Regular-9" transform="translate(388.203125 0)"/>
     <use xlink:href="#AppleSDGothicNeo-Regular-14" transform="translate(419.90625 0)"/>
     <use xlink:href="#AppleSDGothicNeo-Regular-d" transform="translate(471.40625 0)"/>
     <use xlink:href="#AppleSDGothicNeo-Regular-a" transform="translate(494 0)"/>
     <use xlink:href="#AppleSDGothicNeo-Regular-1" transform="translate(525.703125 0)"/>
     <use xlink:href="#AppleSDGothicNeo-Regular-21" transform="translate(552 0)"/>
     <use xlink:href="#AppleSDGothicNeo-Regular-1" transform="translate(640.296875 0)"/>
     <use xlink:href="#AppleSDGothicNeo-Regular-38" transform="translate(666.59375 0)"/>
     <use xlink:href="#AppleSDGothicNeo-Regular-9" transform="translate(751.890625 0)"/>
     <use xlink:href="#AppleSDGothicNeo-Regular-14" transform="translate(783.59375 0)"/>
     <use xlink:href="#AppleSDGothicNeo-Regular-d" transform="translate(835.09375 0)"/>
     <use xlink:href="#AppleSDGothicNeo-Regular-15" transform="translate(853.59375 0)"/>
     <use xlink:href="#AppleSDGothicNeo-Regular-a" transform="translate(909.09375 0)"/>
     <use xlink:href="#AppleSDGothicNeo-Regular-1" transform="translate(940.796875 0)"/>
     <use xlink:href="#AppleSDGothicNeo-Regular-aa" transform="translate(967.09375 0)"/>
     <use xlink:href="#AppleSDGothicNeo-Regular-1" transform="translate(1037.59375 0)"/>
     <use xlink:href="#AppleSDGothicNeo-Regular-59" transform="translate(1063.890625 0)"/>
     <use xlink:href="#AppleSDGothicNeo-Regular-4e1" transform="translate(1111.59375 0)"/>
     <use xlink:href="#AppleSDGothicNeo-Regular-a49" transform="translate(1198.09375 0)"/>
     <use xlink:href="#AppleSDGothicNeo-Regular-1" transform="translate(1284.59375 0)"/>
     <use xlink:href="#AppleSDGothicNeo-Regular-14" transform="translate(1310.890625 0)"/>
     <use xlink:href="#AppleSDGothicNeo-Regular-1" transform="translate(1364.484375 0)"/>
     <use xlink:href="#AppleSDGothicNeo-Regular-1e" transform="translate(1390.78125 0)"/>
     <use xlink:href="#AppleSDGothicNeo-Regular-1e" transform="translate(1443.078125 0)"/>
     <use xlink:href="#AppleSDGothicNeo-Regular-1" transform="translate(1495.375 0)"/>
     <use xlink:href="#AppleSDGothicNeo-Regular-38" transform="translate(1521.671875 0)"/>
     <use xlink:href="#AppleSDGothicNeo-Regular-cef" transform="translate(1606.96875 0)"/>
     <use xlink:href="#AppleSDGothicNeo-Regular-1" transform="translate(1693.46875 0)"/>
     <use xlink:href="#AppleSDGothicNeo-Regular-14" transform="translate(1719.765625 0)"/>
     <use xlink:href="#AppleSDGothicNeo-Regular-1" transform="translate(1773.359375 0)"/>
     <use xlink:href="#AppleSDGothicNeo-Regular-a49" transform="translate(1799.65625 0)"/>
     <use xlink:href="#AppleSDGothicNeo-Regular-776" transform="translate(1886.15625 0)"/>
     <use xlink:href="#AppleSDGothicNeo-Regular-1" transform="translate(1972.65625 0)"/>
     <use xlink:href="#AppleSDGothicNeo-Regular-30" transform="translate(1998.953125 0)"/>
     <use xlink:href="#AppleSDGothicNeo-Regular-2c" transform="translate(2067.359375 0)"/>
     <use xlink:href="#AppleSDGothicNeo-Regular-d" transform="translate(2125.765625 0)"/>
     <use xlink:href="#AppleSDGothicNeo-Regular-1" transform="translate(2148.359375 0)"/>
     <use xlink:href="#AppleSDGothicNeo-Regular-47e" transform="translate(2174.65625 0)"/>
     <use xlink:href="#AppleSDGothicNeo-Regular-497" transform="translate(2261.15625 0)"/>
     <use xlink:href="#AppleSDGothicNeo-Regular-1" transform="translate(2347.65625 0)"/>
     <use xlink:href="#AppleSDGothicNeo-Regular-9" transform="translate(2373.953125 0)"/>
     <use xlink:href="#AppleSDGothicNeo-Regular-15" transform="translate(2404.0625 0)"/>
     <use xlink:href="#AppleSDGothicNeo-Regular-d" transform="translate(2456.96875 0)"/>
     <use xlink:href="#AppleSDGothicNeo-Regular-a" transform="translate(2479.5625 0)"/>
    </g>
   </g>
  </g>
 </g>
 <defs>
  <clipPath id="pa662772e4c">
   <rect x="7.2" y="8.0208" width="301.32" height="166.32"/>
  </clipPath>
 </defs>
</svg>
